# xmcd
#
# Track frame offsets: 
#        150
#        12903
#        26586
#        39327
#        52459
#        66096
#        79371
#        92810
#        106745
#        120316
#        132990
#        144568
#        158026
#        171041
#        181648
#        194824
#        205039
#        216783
#        229768
#        243357
#        255303
#        265965
#        275635
#        303621
#        315139
#        329080
#
# Disc length: 4557 seconds
#
# Revision: 0
# Processed by: cddbd v1.5.2PL0 Copyright (c) Steve Scherf et al.
# Submitted via: ExactAudioCopyFreeDBPlugin 1.0
#
DISCID=7211cb1a
DTITLE=B.B. King - Blues In Transition
DYEAR=2015
DGENRE=Blues
TTITLE0=Please love me
TTITLE1=You Upset Me Baby
TTITLE2=Every day I have the blues
TTITLE3=Bad Luck
TTITLE4=3 o'clock blues
TTITLE5=Blind love
TTITLE6=Woke up this morning
TTITLE7=You know I love you
TTITLE8=Sweet Little Angel
TTITLE9=Ten Long Years
TTITLE10=Did You Ever Love A Woman
TTITLE11=Crying Won't Help You
TTITLE12=Sweet Thing
TTITLE13=I've Got Papers On You, Baby
TTITLE14=Tomorrow Is Another Day
TTITLE15=Come by here
TTITLE16=The fool
TTITLE17=I love you so
TTITLE18=The woman I love
TTITLE19=We can't make it
TTITLE20=Treat me right
TTITLE21=Time to say goodbye
TTITLE22=Sweet Sixteen [Parts 1 and 2]
TTITLE23=Quit My Baby
TTITLE24=I Was Blind
TTITLE25=What Can I Do
EXTD=
EXTT0=
EXTT1=
EXTT2=
EXTT3=
EXTT4=
EXTT5=
EXTT6=
EXTT7=
EXTT8=
EXTT9=
EXTT10=
EXTT11=
EXTT12=
EXTT13=
EXTT14=
EXTT15=
EXTT16=
EXTT17=
EXTT18=
EXTT19=
EXTT20=
EXTT21=
EXTT22=
EXTT23=
EXTT24=
EXTT25=
PLAYORDER=
